<svg width="91" height="26" viewBox="0 0 91 26" fill="none" xmlns="http://www.w3.org/2000/svg">
<g clip-path="url(#clip0_709_14917)">
<path d="M21.4531 19.3618V25.8962H3.05176e-05V21.8515L6.88711 13.77C7.41498 14.0117 8.00059 14.2212 8.63569 14.3904L11.4565 15.1236C11.5967 15.1639 11.7287 15.1962 11.8524 15.2284C11.9019 15.2445 11.9596 15.2606 12.0174 15.2848C12.0669 15.309 12.1246 15.3251 12.1741 15.3412C12.603 15.4943 13.0566 15.6957 13.2216 15.8407C13.469 16.0583 13.601 16.3645 13.601 16.7593C13.601 16.7996 13.601 16.8318 13.601 16.8721C13.568 17.3797 13.3205 17.7664 12.8504 18.0645C12.3638 18.3627 11.539 18.4835 10.3925 18.4191C10.2193 18.411 9.90588 18.3788 9.62545 18.3466C9.55946 18.3385 9.49348 18.3304 9.43574 18.3224C9.36151 18.3063 9.29553 18.2982 9.24604 18.2982L8.9986 18.5883L6.18603 21.8837H14.566C16.0176 21.8837 17.2136 20.7718 17.2961 19.3698H21.4366L21.4531 19.3618Z" fill="#262626"/>
<path d="M9.42858 10.8205C9.42858 10.8205 9.4113 10.8205 9.40266 10.812C9.40266 10.812 9.41994 10.812 9.42858 10.8205Z" fill="#262626"/>
<path d="M9.40269 10.812C9.40269 10.812 9.41997 10.8205 9.42861 10.8289C9.42861 10.8289 9.41133 10.8205 9.40269 10.812ZM9.40269 10.812C9.40269 10.812 9.41997 10.8205 9.42861 10.8289C9.42861 10.8289 9.41133 10.8205 9.40269 10.812ZM9.40269 10.812C9.40269 10.812 9.41997 10.8205 9.42861 10.8289C9.42861 10.8289 9.41133 10.8205 9.40269 10.812Z" fill="#262626"/>
<path d="M21.42 0V3.99641L18.2693 7.70276C17.527 7.38047 16.7764 7.05012 16.0341 6.71171C16.3063 6.88092 16.5785 7.05012 16.8506 7.21932C16.9496 7.27572 17.0486 7.34018 17.1393 7.39658C17.2878 7.49327 17.4445 7.5819 17.6012 7.67053C17.6507 7.70276 17.7084 7.72693 17.7579 7.75916C17.8652 7.81556 17.9724 7.88002 18.0714 7.93642L14.434 12.2148C14.0381 12.0617 13.6009 11.9167 13.1061 11.7878L10.2605 11.0707C9.96357 11.0062 9.68314 10.9176 9.44394 10.829C9.44394 10.829 9.43845 10.829 9.42745 10.829C9.42745 10.829 9.4192 10.8209 9.41095 10.8209C9.38621 10.8048 9.33672 10.7887 9.29548 10.7645C9.28723 10.7565 9.27898 10.7484 9.26249 10.7484C9.18826 10.7081 9.11402 10.6759 9.11402 10.6759C8.89958 10.5712 8.73462 10.4583 8.60265 10.3375C8.30572 10.0394 8.17375 9.68485 8.1985 9.24976C8.23149 8.64546 8.51192 8.20231 9.05629 7.91225C9.52642 7.65442 10.1863 7.5255 11.0028 7.5255C11.143 7.5255 11.2915 7.5255 11.4565 7.54161C11.5554 7.54967 11.6627 7.55773 11.7699 7.56579C11.7781 7.56579 11.8441 7.5819 11.9513 7.60607C11.9678 7.60607 11.9761 7.60607 11.9926 7.61413C12.0338 7.62219 12.0751 7.6383 12.1245 7.64636L12.4132 7.31601L15.234 3.99641H7.33246C5.85606 3.99641 4.65186 5.12443 4.55288 6.55057H0.412384V0H21.42Z" fill="#262626"/>
<path d="M36.7697 10.7876V12.109C35.516 11.0777 33.8829 10.4653 32.0189 10.4653C30.526 10.4653 29.1568 10.8843 28.0021 11.6095C29.1733 12.0526 30.3363 12.4877 31.5075 12.9228C34.0644 13.8252 37.2563 14.9613 40.7947 16.1135V10.7876H36.7697ZM35.8542 16.0732C35.8542 16.0732 35.8542 16.0813 35.8624 16.0893C36.2913 16.7017 36.5305 17.4349 36.5305 18.2164C36.5305 20.3597 34.7572 22.092 32.5632 22.092C30.3693 22.092 28.5959 20.3597 28.5959 18.2164C28.5959 16.3794 29.9321 14.8243 31.7302 14.4617C31.7384 14.4617 31.7549 14.4537 31.7632 14.4537C30.0558 13.7527 28.4557 13.0678 26.9876 12.391L26.9711 12.4071C25.4122 13.8252 24.4554 15.904 24.4554 18.2164C24.4554 22.5351 27.7217 25.9998 32.0271 25.9998C33.8912 25.9998 35.516 25.3794 36.778 24.3561V25.6775H40.803V17.8458C39.1121 17.2737 37.4543 16.6775 35.8624 16.0732H35.8542Z" fill="#262626"/>
<path d="M43.8052 18.8207V25.6775H47.7973V19.9971C46.4528 19.6265 45.1167 19.2317 43.8052 18.8207ZM47.7973 12.7214V10.7876H43.8052V17.0723C45.1332 17.4832 46.5023 17.8861 47.888 18.2728C48.2922 15.0822 49.9995 14.3651 52.4574 14.3651V10.4653C50.4119 10.4653 48.8778 11.2549 47.7973 12.7214Z" fill="#262626"/>
<path d="M64.5075 14.4608V10.7947H60.3587V7.4751H56.3337V10.7947H53.8016V14.4608H56.3337V20.3506C57.7029 20.6326 59.0803 20.8824 60.433 21.0838C60.3917 20.8985 60.367 20.6971 60.367 20.4795V14.4608H64.5157H64.5075ZM64.7962 22.8806C62.1321 22.8 59.3112 22.4778 56.4574 21.9701C56.4574 21.9782 56.4574 21.9943 56.4574 22.0024C56.9523 24.7338 58.8659 25.9102 61.6207 25.9102C63.5755 25.9102 64.9776 24.8869 65.8519 23.9119L64.7962 22.8806Z" fill="#262626"/>
<path d="M88.2536 4.30127C89.4578 4.30127 90.4475 5.26814 90.4475 6.44451C90.4475 7.62087 89.4578 8.58774 88.2536 8.58774C87.0493 8.58774 86.0926 7.62087 86.0926 6.44451C86.0926 5.26814 87.0576 4.30127 88.2536 4.30127ZM86.2658 10.7874H90.2661V25.6772H86.2658V10.7874Z" fill="#262626"/>
<path d="M71.9474 25.6848H67.9554V22.8889C68.9534 22.8487 69.9349 22.76 70.8752 22.623C70.9906 23.7833 71.3206 24.9597 71.9392 25.6848H71.9474Z" fill="#262626"/>
<path d="M77.9189 20.1661C77.3333 20.4239 76.7147 20.6415 76.0796 20.8429C75.9559 20.1097 76.3353 19.5779 76.9869 19.2959C77.1601 19.4732 77.3416 19.6504 77.5065 19.8357C77.6055 19.9485 77.721 20.0452 77.8447 20.1258C77.8694 20.1419 77.8942 20.158 77.9189 20.1741V20.1661Z" fill="#262626"/>
<path d="M83.074 17.9987V25.6934H77.8695C78.0097 24.7749 77.3581 23.8241 76.8385 22.9942C76.5168 22.4785 76.3024 21.8742 76.1539 21.2619C76.8468 20.9799 77.4984 20.6576 78.117 20.295C78.6118 20.569 79.1645 20.7704 79.4284 21.3425C79.4614 21.423 79.7006 21.4472 79.8408 21.4472C80.6656 21.4553 81.1357 20.7382 80.7976 19.9566C80.3522 18.9414 79.9315 17.9181 79.3789 16.9593C78.983 16.2744 78.6696 15.6137 78.8015 14.671C78.5623 14.945 78.4304 15.09 78.1912 15.364C78.2572 14.8966 78.2984 14.5824 78.3644 14.1634C78.0262 14.4212 77.7211 14.5663 77.5396 14.7999C77.2179 15.2189 76.8633 15.2592 76.3436 15.1947C73.6795 14.8805 71.0484 17.3299 70.7185 19.7229C70.9412 19.7229 70.9824 19.2798 71.2299 19.2798C71.2299 19.3604 71.2381 19.4248 71.2134 19.4732C70.9824 19.9727 70.8422 20.8107 70.8422 21.7292C69.9019 21.7937 68.9452 21.8178 67.9637 21.8017V3.81787H71.9639V12.0685C72.9867 11.0694 74.3724 10.4812 76.0879 10.4812C80.8058 10.4812 83.0905 13.825 83.0905 17.9987H83.074Z" fill="#262626"/>
<path d="M18.0714 7.93808C17.9642 7.8815 17.8652 7.82492 17.758 7.76025C17.8652 7.81683 17.9724 7.8815 18.0714 7.93808Z" fill="#262626"/>
<path d="M31.763 14.4543C31.763 14.4543 31.7382 14.4543 31.73 14.4623C30.0309 13.7613 28.4308 13.0684 26.9709 12.4077L26.9874 12.3916C28.4555 13.0604 30.0556 13.7533 31.763 14.4543Z" fill="#262626"/>
<path d="M40.7947 17.8473V17.8715C39.1038 17.2914 37.4542 16.6951 35.8624 16.0908C35.8624 16.0908 35.8624 16.0828 35.8541 16.0747C37.446 16.679 39.1038 17.2752 40.7947 17.8473Z" fill="#262626"/>
<path d="M47.7973 19.9967V20.0208C46.4611 19.6502 45.1249 19.2554 43.8052 18.8364V18.8203C45.1167 19.2312 46.4528 19.626 47.7973 19.9967Z" fill="#262626"/>
<path d="M64.8376 22.9239C62.157 22.8353 59.3362 22.513 56.4659 22.0054C56.4659 21.9973 56.4659 21.9812 56.4659 21.9731C59.3279 22.4808 62.1405 22.803 64.8046 22.8836L64.8458 22.9239H64.8376Z" fill="#262626"/>
<path d="M79.6839 19.2405C71.3782 25.3721 56.3338 21.843 47.0218 19.3694C36.3242 16.211 25.8245 12.1581 16.1001 6.75977C18.5827 8.00864 21.1396 9.11249 23.7047 10.1841C36.7201 15.51 67.1634 27.5153 79.6839 19.2405Z" fill="#262626"/>
</g>
<defs>
<clipPath id="clip0_709_14917">
<rect width="90.5185" height="26" fill="white"/>
</clipPath>
</defs>
</svg>
